<?xml version="1.0" standalone="no"?>
<!DOCTYPE svg PUBLIC "-//W3C//DTD SVG 20010904//EN"
 "http://www.w3.org/TR/2001/REC-SVG-20010904/DTD/svg10.dtd">
<svg version="1.0" xmlns="http://www.w3.org/2000/svg"
 width="1408.000000pt" height="736.000000pt" viewBox="0 0 1408.000000 736.000000"
 preserveAspectRatio="xMidYMid meet">

<g transform="translate(0.000000,736.000000) scale(0.100000,-0.100000)"
fill="#105190" stroke="none">
<path d="M6860 6406 c-74 -46 -236 -143 -360 -216 -124 -73 -268 -159 -320
-190 -52 -31 -178 -106 -280 -165 -102 -60 -309 -182 -460 -273 -302 -181
-573 -339 -662 -387 l-58 -30 3 -1415 2 -1415 195 -116 c183 -109 435 -257
1125 -662 314 -184 523 -307 765 -452 85 -51 165 -98 178 -104 20 -11 34 -5
120 47 53 33 187 111 297 175 209 120 759 440 785 456 21 13 747 439 955 560
l170 99 3 1409 2 1410 -157 94 c-87 51 -194 114 -238 140 -80 46 -768 450
-1030 604 -77 45 -239 140 -360 210 -121 70 -288 168 -372 216 -83 49 -155 89
-160 88 -4 0 -69 -38 -143 -83z m387 -312 c120 -70 299 -174 398 -232 216
-125 815 -479 1158 -684 137 -81 252 -148 256 -148 35 0 35 -3 37 -1296 1
-918 -2 -1268 -10 -1278 -10 -14 -274 -171 -696 -416 -203 -118 -594 -347
-860 -505 -85 -51 -222 -132 -305 -180 -82 -48 -164 -96 -181 -106 l-30 -18
-140 82 c-302 180 -536 319 -679 402 -82 48 -238 140 -345 203 -107 63 -296
174 -420 247 -369 217 -403 237 -448 267 l-43 29 2 1257 c1 691 3 1266 6 1277
2 11 21 29 41 41 72 40 878 516 1072 632 69 42 204 121 300 177 96 56 281 166
410 243 129 78 241 140 247 137 7 -2 111 -61 230 -131z"/>
<path d="M6935 5986 c-101 -61 -630 -376 -835 -496 -96 -56 -303 -178 -460
-270 -157 -92 -337 -198 -400 -237 l-115 -69 -3 -912 c-1 -502 1 -912 4 -912
9 0 206 120 227 138 9 8 17 25 17 38 0 29 37 64 67 64 29 0 73 -42 73 -68 0
-11 -10 -32 -22 -47 -18 -24 -26 -27 -61 -22 -37 5 -50 -1 -174 -80 l-133 -85
0 -70 0 -70 23 14 c12 8 78 50 147 93 186 115 278 175 290 190 9 11 80 356 80
391 0 24 -22 16 -125 -47 -137 -83 -135 -82 -135 -65 0 8 52 48 115 90 103 68
115 80 115 106 0 19 9 35 26 49 83 65 168 -50 87 -118 -33 -28 -42 -61 -94
-328 l-22 -113 -111 -68 c-61 -38 -175 -108 -253 -156 l-143 -88 0 -59 c0 -32
4 -59 9 -59 5 0 87 49 183 108 95 59 219 137 276 172 154 96 144 80 181 276
18 93 46 236 63 318 29 141 29 151 14 177 -33 56 -12 122 43 134 16 3 35 14
43 23 8 9 81 132 163 272 81 140 175 302 209 360 56 96 60 109 58 156 -3 46 0
54 25 74 21 16 35 20 58 15 63 -14 94 -6 245 62 85 39 215 97 289 129 125 55
136 62 155 99 33 62 63 66 147 20 21 -12 58 -13 231 -4 l206 11 144 -78 c78
-43 170 -92 203 -110 33 -18 64 -39 69 -47 24 -37 25 -37 -479 -172 l-119 -32
-61 -124 -60 -124 -105 -25 c-58 -13 -106 -24 -107 -25 -1 -1 4 -57 11 -126 7
-68 10 -129 7 -136 -8 -16 -270 -223 -282 -223 -5 0 -12 7 -16 17 -7 19 17 42
160 153 75 58 96 79 93 95 -3 11 -10 64 -18 118 l-13 99 -55 -7 c-30 -4 -58
-9 -62 -12 -14 -8 -8 -113 7 -137 18 -27 11 -53 -16 -61 -40 -13 -66 39 -33
66 13 11 15 26 9 85 l-7 72 29 6 c15 2 48 8 73 11 63 10 79 22 139 113 41 62
51 85 46 105 -9 35 32 64 65 47 30 -16 23 -59 -13 -79 -27 -15 -121 -140 -112
-149 6 -6 148 29 160 39 6 5 37 61 70 126 l60 117 150 42 c83 23 188 52 235
65 l85 23 -50 8 c-27 4 -107 12 -179 18 -121 10 -130 10 -150 -8 -28 -26 -46
-30 -78 -21 -33 9 -43 2 -248 -155 -80 -61 -201 -152 -269 -201 l-123 -90 6
-153 7 -153 -43 -52 c-44 -54 -58 -67 -70 -67 -20 0 -4 37 37 85 l45 52 -11
152 c-6 84 -9 153 -8 155 2 1 42 29 89 62 110 76 352 256 458 339 70 56 82 70
82 95 0 38 32 70 70 70 28 0 62 -23 71 -48 2 -5 76 -15 164 -21 230 -16 222
-18 140 34 -38 25 -101 61 -138 81 l-69 36 -206 -11 c-191 -10 -208 -12 -222
-31 -9 -12 -27 -27 -40 -33 -17 -9 -30 -29 -42 -67 -17 -57 -23 -100 -12 -100
19 0 94 57 94 72 0 9 10 24 22 32 27 20 58 4 58 -29 0 -28 -8 -34 -49 -39 -17
-2 -39 -9 -48 -17 -41 -31 -83 -74 -83 -85 0 -15 -38 -44 -57 -44 -7 0 -20 11
-28 24 -14 20 -14 29 -4 48 7 13 18 28 25 33 13 11 46 146 38 155 -3 3 -11 -2
-17 -11 -55 -73 -101 -116 -177 -161 -349 -207 -340 -201 -323 -220 10 -12 24
-16 40 -12 13 4 29 2 36 -4 9 -8 35 2 97 36 71 39 86 52 88 75 4 30 44 67 74
67 24 0 68 -44 68 -68 0 -11 -10 -32 -22 -47 -19 -24 -26 -27 -65 -21 -40 5
-51 1 -128 -47 -51 -31 -84 -59 -85 -69 0 -9 -7 -21 -17 -26 -15 -9 -15 -24
-5 -173 l11 -164 -28 -40 c-56 -78 -93 -75 -42 3 l31 49 -11 159 c-8 108 -16
164 -25 175 -8 8 -14 25 -14 36 0 11 -11 30 -24 42 l-24 23 -49 -33 c-26 -18
-50 -34 -53 -36 -6 -6 -1 -125 10 -199 6 -45 15 -68 34 -87 51 -51 24 -130
-44 -130 -62 0 -91 68 -53 123 13 19 17 41 15 90 -2 36 -6 73 -9 83 -4 17 -6
17 -21 -4 -8 -12 -48 -80 -88 -150 -70 -123 -73 -131 -67 -177 5 -44 3 -51
-18 -66 -13 -9 -32 -16 -42 -16 -24 0 -67 44 -67 70 0 27 35 60 64 60 21 0 39
25 127 178 111 192 113 198 91 321 l-7 44 -62 -104 c-261 -442 -388 -667 -379
-676 3 -4 142 21 309 54 l302 60 246 -123 247 -123 6 -113 c4 -62 11 -182 17
-266 7 -109 6 -158 -2 -173 -6 -11 -57 -99 -115 -195 -135 -226 -159 -273
-145 -287 8 -8 75 -6 239 6 232 18 534 48 541 54 8 6 -32 43 -78 72 l-46 28
-180 -17 c-172 -16 -182 -18 -208 -43 -30 -31 -62 -34 -95 -11 -44 30 -15 114
40 114 12 0 33 -11 47 -24 l26 -25 135 15 c74 8 147 15 162 16 35 3 29 10 -49
62 -55 38 -70 43 -103 39 -47 -7 -80 21 -80 67 0 35 38 80 68 80 31 0 63 -32
71 -70 6 -30 20 -44 99 -97 51 -35 96 -63 100 -63 5 0 34 16 66 35 45 27 57
31 54 17 -2 -9 -25 -29 -51 -43 -53 -29 -52 -32 24 -77 56 -34 61 -30 54 36
-16 151 -15 149 -41 161 -14 6 -32 24 -42 40 -14 25 -222 167 -273 186 -8 3
-44 -1 -79 -9 -44 -10 -68 -12 -75 -5 -14 14 6 24 82 43 74 19 57 25 226 -81
108 -67 121 -73 150 -65 18 5 37 7 43 5 7 -2 40 18 75 44 49 37 65 56 70 82 9
44 31 64 70 64 60 0 91 -71 48 -114 -16 -16 -30 -20 -57 -17 -31 4 -46 -2 -87
-32 -68 -50 -73 -58 -81 -120 l-7 -54 29 19 c16 10 65 44 109 75 109 78 240
160 253 160 28 0 2 -21 -153 -125 -91 -60 -181 -123 -200 -140 l-35 -30 10
-65 c6 -35 16 -68 23 -72 17 -11 48 16 287 257 182 183 218 224 188 211 -46
-18 -49 -7 -7 29 17 14 29 28 27 30 -2 3 -32 9 -66 13 -48 7 -65 6 -73 -5 -14
-16 -61 -17 -77 -1 -7 7 -12 26 -12 44 0 26 5 34 29 42 16 6 31 9 33 7 2 -2
31 11 63 29 38 20 65 44 74 62 23 47 48 56 75 28 21 -20 20 -30 -5 -55 -13
-13 -28 -19 -41 -16 -24 7 -124 -61 -110 -75 4 -4 37 -11 73 -14 55 -4 71 -2
113 19 l50 25 81 179 81 179 -13 120 c-25 223 -22 222 -76 40 -42 -144 -45
-160 -32 -179 22 -31 18 -60 -9 -86 -20 -19 -33 -22 -63 -18 -41 5 -33 9 -514
-305 l-166 -108 -133 74 -133 74 -66 -19 c-100 -30 -141 -35 -141 -17 0 9 36
24 108 45 89 26 109 29 122 18 8 -7 66 -41 128 -75 l112 -62 203 132 c111 72
252 164 312 203 71 47 111 79 113 92 7 52 14 63 42 75 16 7 32 20 34 29 3 9
21 72 41 141 19 69 38 133 41 144 12 37 -17 3 -156 -184 -111 -148 -147 -190
-168 -194 -15 -2 -80 -10 -145 -17 l-118 -12 -44 -63 c-25 -34 -45 -65 -45
-67 0 -2 33 2 72 11 48 9 77 21 86 33 26 37 77 14 70 -32 -4 -31 -33 -47 -57
-32 -15 9 -37 8 -105 -6 -72 -14 -92 -23 -122 -52 -19 -19 -43 -46 -52 -61 -9
-16 -22 -28 -29 -28 -8 0 -49 18 -93 40 -51 26 -88 38 -103 35 -37 -9 -63 23
-45 58 12 24 43 21 65 -7 15 -19 149 -96 167 -96 2 0 19 18 37 41 39 49 40 47
-90 119 l-93 51 -57 -34 c-126 -77 -227 -126 -240 -117 -27 16 0 39 126 108
197 108 165 104 287 33 59 -34 111 -59 117 -55 6 3 31 37 56 75 24 38 54 75
66 83 12 7 81 19 154 26 l132 12 139 187 c76 102 152 206 169 231 17 25 43 58
58 74 49 53 50 46 92 -426 6 -74 12 -56 -103 -310 -49 -107 -52 -121 -47 -171
5 -47 3 -56 -18 -75 -14 -14 -36 -22 -58 -22 -34 0 -53 -17 -289 -253 -219
-219 -252 -256 -252 -283 0 -64 -65 -93 -127 -57 -28 15 -48 15 -344 -11 -173
-15 -347 -29 -387 -33 -60 -5 -79 -11 -109 -34 -50 -41 -84 -38 -134 10 -23
21 -51 41 -63 44 -11 2 -127 37 -256 77 -129 40 -268 81 -308 92 l-73 19 -114
-73 c-63 -40 -118 -81 -121 -91 -3 -9 -14 -22 -25 -28 -26 -13 -69 12 -69 41
0 23 41 53 61 45 8 -3 71 30 139 75 69 44 131 80 139 80 7 0 102 -27 210 -61
323 -101 454 -139 470 -139 9 0 25 7 35 15 11 8 30 15 42 15 18 0 45 38 146
208 178 295 161 239 148 470 -7 108 -15 219 -18 246 l-7 49 -222 113 -222 114
-88 -19 c-48 -11 -180 -38 -293 -61 -112 -23 -207 -43 -209 -46 -8 -7 10 -20
82 -59 l68 -38 172 29 c97 17 175 35 181 42 33 41 49 52 74 52 42 0 67 -32 63
-82 -3 -47 -75 -64 -112 -27 l-21 21 -141 -26 c-175 -33 -178 -34 -152 -48 11
-6 88 -51 171 -100 138 -81 154 -88 177 -77 19 9 34 9 58 0 31 -11 38 -8 120
44 47 30 92 55 98 55 31 0 1 -31 -79 -83 -71 -45 -90 -63 -90 -81 0 -13 -9
-35 -20 -49 l-21 -26 26 -183 c36 -256 31 -247 91 -152 96 151 95 149 88 192
-5 32 -2 44 15 61 25 25 73 28 95 5 40 -40 8 -114 -49 -114 -18 0 -34 -18 -73
-77 -71 -113 -92 -157 -81 -174 14 -22 11 -72 -7 -97 -21 -31 -85 -31 -114 0
-11 12 -20 27 -20 34 0 7 -21 19 -47 28 -112 35 -517 146 -536 146 -7 0 -78
-41 -157 -91 -80 -50 -170 -107 -200 -126 l-55 -35 -34 -147 c-19 -80 -42
-180 -52 -223 l-17 -76 48 -26 47 -26 174 110 c96 61 177 116 181 123 4 6 9
25 13 40 11 56 97 58 123 3 28 -57 -18 -106 -86 -93 -22 5 -56 -12 -177 -88
-82 -52 -159 -100 -169 -108 -21 -15 -30 -9 169 -123 l41 -23 59 39 c48 32 59
44 57 63 -7 53 58 94 107 68 14 -8 56 15 199 109 100 66 182 126 182 134 0 10
-65 36 -216 85 -119 39 -221 71 -226 71 -20 0 -313 -194 -339 -224 -24 -28
-29 -29 -53 -18 -46 21 -30 82 22 82 14 0 96 46 189 105 90 58 171 105 181
105 9 0 112 -32 229 -71 209 -70 214 -71 251 -56 25 10 45 12 61 6 93 -36 47
-171 -47 -138 -27 9 -40 3 -163 -75 -74 -47 -158 -99 -186 -116 -39 -23 -53
-38 -53 -54 0 -50 -58 -88 -101 -66 -16 9 -28 5 -69 -25 -28 -20 -50 -40 -50
-43 1 -6 91 -62 305 -187 39 -23 120 -71 180 -107 61 -35 178 -104 260 -153
83 -49 197 -116 255 -151 58 -34 110 -64 116 -66 6 -2 47 18 90 44 91 53 466
273 859 503 149 86 340 199 425 249 85 51 242 143 348 206 l192 113 -2 1180
-3 1180 -80 47 c-44 25 -204 120 -355 210 -151 90 -300 178 -330 195 -30 17
-215 126 -410 241 -448 265 -701 412 -720 418 -8 2 -46 -15 -85 -38z m-1
-2339 c9 -15 7 -21 -9 -33 -22 -16 -34 -14 -49 8 -7 12 -6 21 4 33 16 19 39
16 54 -8z m-1586 -223 c-2 -9 -32 -32 -68 -51 -36 -19 -72 -41 -81 -49 -20
-18 -39 -18 -39 1 0 8 17 23 38 34 20 11 55 33 77 50 44 34 78 41 73 15z"/>
<path d="M6818 4873 c-224 -99 -308 -140 -308 -152 0 -20 70 -91 89 -91 7 0
115 61 240 137 206 123 231 141 265 190 20 29 34 53 29 53 -4 0 -146 -62 -315
-137z"/>
<path d="M7514 4936 c-10 -26 4 -48 28 -44 17 2 23 10 23 28 0 18 -6 26 -23
28 -13 2 -25 -3 -28 -12z"/>
<path d="M6944 4695 c-9 -23 3 -45 25 -45 23 0 35 28 20 46 -15 18 -38 18 -45
-1z"/>
<path d="M6481 4651 c-10 -6 -11 -21 -6 -60 4 -28 10 -51 13 -51 4 1 24 16 45
34 l39 32 -36 27 c-39 31 -36 30 -55 18z"/>
<path d="M6181 4067 c-24 -29 17 -70 46 -46 8 7 13 22 11 33 -4 25 -40 33 -57
13z"/>
<path d="M6541 3796 c-19 -23 -4 -56 25 -56 28 0 42 25 27 49 -14 22 -37 25
-52 7z"/>
<path d="M8314 3775 c-9 -23 3 -45 25 -45 23 0 35 28 20 46 -15 18 -38 18 -45
-1z"/>
<path d="M5924 3725 c-18 -21 -75 -275 -141 -628 -2 -15 -14 -34 -26 -43 -33
-23 -397 -251 -525 -328 l-113 -69 3 -56 3 -56 160 -92 c88 -51 163 -93 166
-93 3 0 13 35 23 78 9 42 32 142 50 221 l32 145 157 100 c86 56 159 104 162
108 14 14 110 526 101 541 -14 23 1 49 26 45 25 -3 38 -45 19 -57 -10 -6 -101
-447 -101 -487 0 -12 13 -9 58 16 31 18 64 39 73 49 9 9 25 66 38 139 l22 123
-21 26 c-39 50 -14 113 45 113 36 0 60 -17 70 -51 9 -26 -12 -67 -36 -74 -10
-3 -20 -14 -23 -23 -12 -40 -38 -203 -33 -208 5 -5 329 196 375 233 47 37 42
41 -312 244 -104 60 -198 109 -210 108 -12 0 -30 -11 -42 -24z"/>
<path d="M6117 3484 c-11 -11 -8 -52 3 -59 6 -3 19 -3 31 0 28 9 23 59 -6 63
-12 2 -24 0 -28 -4z"/>
<path d="M6454 3322 c-120 -74 -366 -229 -392 -247 -13 -10 -21 -19 -18 -22 8
-9 511 -143 535 -143 10 0 26 9 36 20 17 19 16 26 -9 197 -38 248 -33 241 -83
126 -30 -72 -40 -107 -36 -130 4 -28 2 -33 -20 -38 -14 -4 -31 -4 -36 0 -16 9
-13 53 3 62 15 9 41 56 61 112 7 20 20 53 29 74 9 20 15 37 13 37 -2 0 -39
-22 -83 -48z"/>
<path d="M7862 3298 c-16 -16 -15 -33 3 -48 20 -17 47 5 43 34 -4 24 -28 32
-46 14z"/>
<path d="M5414 3276 c-10 -26 4 -48 28 -44 17 2 23 10 23 28 0 18 -6 26 -23
28 -13 2 -25 -3 -28 -12z"/>
<path d="M6861 3256 c-9 -11 -10 -20 -1 -35 19 -36 64 -20 58 20 -4 28 -39 37
-57 15z"/>
<path d="M7030 2865 c-18 -22 -8 -50 19 -50 32 0 49 28 32 49 -17 20 -35 20
-51 1z"/>
<path d="M6008 2553 c-11 -3 -18 -14 -18 -29 0 -19 5 -24 25 -24 14 0 28 7 32
16 7 20 -16 42 -39 37z"/>
<path d="M6012 2233 c2 -22 8 -28 28 -28 20 0 26 6 28 28 3 24 0 27 -28 27
-28 0 -31 -3 -28 -27z"/>
</g>
</svg>
