<?xml version="1.0" encoding="UTF-8"?>
<svg version="1.1" xmlns="http://www.w3.org/2000/svg" width="1408" height="736">
<path d="M0,0 L1408,0 L1408,736 L0,736 Z " fill="#F9FAF9" transform="translate(0,0)"/>
<path d="M0,0 L3,0 L3,1 L5,1 L5,2 L6,2 L6,3 L8,3 L8,4 L10,4 L10,5 L12,5 L12,6 L13,6 L13,7 L15,7 L15,8 L16,8 L16,9 L18,9 L18,10 L20,10 L20,11 L21,11 L21,12 L23,12 L23,13 L25,13 L25,14 L27,14 L27,15 L28,15 L28,16 L30,16 L30,17 L32,17 L32,18 L34,18 L34,19 L36,19 L36,20 L37,20 L37,21 L39,21 L39,22 L41,22 L41,23 L42,23 L42,24 L44,24 L44,25 L46,25 L46,26 L48,26 L48,27 L49,27 L49,28 L51,28 L51,29 L53,29 L53,30 L54,30 L54,31 L56,31 L56,32 L57,32 L57,33 L59,33 L59,34 L61,34 L61,35 L63,35 L63,36 L65,36 L65,37 L66,37 L66,38 L68,38 L68,39 L70,39 L70,40 L71,40 L71,41 L73,41 L73,42 L75,42 L75,43 L77,43 L77,44 L78,44 L78,45 L80,45 L80,46 L82,46 L82,47 L84,47 L84,48 L86,48 L86,49 L87,49 L87,50 L88,50 L88,51 L91,51 L91,52 L92,52 L92,53 L94,53 L94,54 L95,54 L95,55 L97,55 L97,56 L99,56 L99,57 L101,57 L101,58 L102,58 L102,59 L104,59 L104,60 L106,60 L106,61 L107,61 L107,62 L109,62 L109,63 L111,63 L111,64 L112,64 L112,65 L114,65 L114,66 L116,66 L116,67 L118,67 L118,68 L119,68 L119,69 L121,69 L121,70 L123,70 L123,71 L124,71 L124,72 L126,72 L126,73 L128,73 L128,74 L130,74 L130,75 L131,75 L131,76 L133,76 L133,77 L134,77 L134,78 L137,78 L137,79 L138,79 L138,80 L140,80 L140,81 L142,81 L142,82 L144,82 L144,83 L146,83 L146,84 L147,84 L147,85 L148,85 L148,86 L150,86 L150,87 L152,87 L152,88 L153,88 L153,89 L155,89 L155,90 L157,90 L157,91 L158,91 L158,92 L160,92 L160,93 L162,93 L162,94 L163,94 L163,95 L165,95 L165,96 L167,96 L167,97 L169,97 L169,98 L170,98 L170,99 L172,99 L172,100 L174,100 L174,101 L175,101 L175,102 L177,102 L177,103 L179,103 L179,104 L180,104 L180,105 L182,105 L182,106 L184,106 L184,107 L186,107 L186,108 L187,108 L187,109 L189,109 L189,110 L191,110 L191,111 L193,111 L193,112 L194,112 L194,113 L196,113 L196,114 L198,114 L198,115 L200,115 L200,116 L201,116 L201,117 L203,117 L203,118 L204,118 L204,119 L206,119 L206,120 L208,120 L208,121 L210,121 L210,122 L211,122 L211,123 L213,123 L213,124 L215,124 L215,125 L216,125 L216,126 L218,126 L218,127 L220,127 L220,128 L221,128 L221,129 L223,129 L223,130 L225,130 L225,131 L227,131 L227,132 L228,132 L228,133 L230,133 L230,134 L232,134 L232,135 L233,135 L233,417 L231,417 L231,418 L230,418 L230,419 L228,419 L228,420 L227,420 L227,421 L225,421 L225,422 L223,422 L223,423 L222,423 L222,424 L220,424 L220,425 L218,425 L218,426 L217,426 L217,427 L215,427 L215,428 L213,428 L213,429 L212,429 L212,430 L210,430 L210,431 L208,431 L208,432 L207,432 L207,433 L205,433 L205,434 L203,434 L203,435 L201,435 L201,436 L199,436 L199,437 L198,437 L198,438 L196,438 L196,439 L194,439 L194,440 L192,440 L192,441 L190,441 L190,442 L189,442 L189,443 L187,443 L187,444 L185,444 L185,445 L184,445 L184,446 L182,446 L182,447 L180,447 L180,448 L179,448 L179,449 L177,449 L177,450 L175,450 L175,451 L174,451 L174,452 L172,452 L172,453 L170,453 L170,454 L169,454 L169,455 L167,455 L167,456 L165,456 L165,457 L163,457 L163,458 L162,458 L162,459 L160,459 L160,460 L158,460 L158,461 L156,461 L156,462 L155,462 L155,463 L153,463 L153,464 L151,464 L151,465 L150,465 L150,466 L148,466 L148,467 L146,467 L146,468 L145,468 L145,469 L143,469 L143,470 L141,470 L141,471 L140,471 L140,472 L138,472 L138,473 L136,473 L136,474 L134,474 L134,475 L132,475 L132,476 L131,476 L131,477 L129,477 L129,478 L128,478 L128,479 L126,479 L126,480 L124,480 L124,481 L122,481 L122,482 L121,482 L121,483 L119,483 L119,484 L117,484 L117,485 L116,485 L116,486 L114,486 L114,487 L112,487 L112,488 L110,488 L110,489 L108,489 L108,490 L107,490 L107,491 L105,491 L105,492 L104,492 L104,493 L102,493 L102,494 L100,494 L100,495 L99,495 L99,496 L98,496 L98,497 L94,497 L94,498 L93,498 L93,499 L92,499 L92,500 L90,500 L90,501 L88,501 L88,502 L86,502 L86,503 L85,503 L85,504 L83,504 L83,505 L81,505 L81,506 L80,506 L80,507 L78,507 L78,508 L76,508 L76,509 L75,509 L75,510 L73,510 L73,511 L71,511 L71,512 L69,512 L69,513 L68,513 L68,514 L66,514 L66,515 L64,515 L64,516 L63,516 L63,517 L61,517 L61,518 L59,518 L59,519 L58,519 L58,520 L56,520 L56,521 L54,521 L54,522 L52,522 L52,523 L51,523 L51,524 L49,524 L49,525 L47,525 L47,526 L45,526 L45,527 L44,527 L44,528 L42,528 L42,529 L40,529 L40,530 L38,530 L38,531 L36,531 L36,532 L35,532 L35,533 L33,533 L33,534 L31,534 L31,535 L30,535 L30,536 L28,536 L28,537 L26,537 L26,538 L25,538 L25,539 L23,539 L23,540 L21,540 L21,541 L20,541 L20,542 L18,542 L18,543 L16,543 L16,544 L14,544 L14,545 L12,545 L12,546 L11,546 L11,547 L10,547 L10,548 L8,548 L8,549 L6,549 L6,550 L5,550 L5,551 L3,551 L3,552 L0,552 L0,551 L-1,551 L-1,550 L-3,550 L-3,549 L-4,549 L-4,548 L-6,548 L-6,547 L-8,547 L-8,546 L-10,546 L-10,545 L-11,545 L-11,544 L-13,544 L-13,543 L-15,543 L-15,542 L-17,542 L-17,541 L-19,541 L-19,540 L-20,540 L-20,539 L-22,539 L-22,538 L-23,538 L-23,537 L-25,537 L-25,536 L-27,536 L-27,535 L-28,535 L-28,534 L-30,534 L-30,533 L-32,533 L-32,532 L-34,532 L-34,531 L-35,531 L-35,530 L-37,530 L-37,529 L-38,529 L-38,528 L-40,528 L-40,527 L-41,527 L-41,526 L-43,526 L-43,525 L-46,525 L-46,524 L-47,524 L-47,523 L-49,523 L-49,522 L-51,522 L-51,521 L-52,521 L-52,520 L-54,520 L-54,519 L-55,519 L-55,518 L-57,518 L-57,517 L-59,517 L-59,516 L-60,516 L-60,515 L-62,515 L-62,514 L-64,514 L-64,513 L-65,513 L-65,512 L-67,512 L-67,511 L-69,511 L-69,510 L-71,510 L-71,509 L-72,509 L-72,508 L-74,508 L-74,507 L-76,507 L-76,506 L-78,506 L-78,505 L-80,505 L-80,504 L-82,504 L-82,503 L-83,503 L-83,502 L-85,502 L-85,501 L-86,501 L-86,500 L-88,500 L-88,499 L-89,499 L-89,498 L-91,498 L-91,497 L-93,497 L-93,496 L-94,496 L-94,495 L-96,495 L-96,494 L-98,494 L-98,493 L-100,493 L-100,492 L-101,492 L-101,491 L-103,491 L-103,490 L-105,490 L-105,489 L-107,489 L-107,488 L-108,488 L-108,487 L-110,487 L-110,486 L-112,486 L-112,485 L-113,485 L-113,484 L-115,484 L-115,483 L-116,483 L-116,482 L-118,482 L-118,481 L-120,481 L-120,480 L-122,480 L-122,479 L-124,479 L-124,478 L-125,478 L-125,477 L-127,477 L-127,476 L-129,476 L-129,475 L-131,475 L-131,474 L-133,474 L-133,473 L-134,473 L-134,472 L-136,472 L-136,470 L-138,470 L-138,469 L-140,469 L-140,468 L-142,468 L-142,467 L-144,467 L-144,466 L-146,466 L-146,465 L-148,465 L-148,464 L-149,464 L-149,463 L-151,463 L-151,462 L-153,462 L-153,461 L-154,461 L-154,460 L-156,460 L-156,459 L-158,459 L-158,458 L-159,458 L-159,457 L-161,457 L-161,456 L-162,456 L-162,455 L-164,455 L-164,454 L-166,454 L-166,453 L-167,453 L-167,452 L-169,452 L-169,451 L-171,451 L-171,450 L-173,450 L-173,449 L-175,449 L-175,448 L-176,448 L-176,447 L-178,447 L-178,446 L-179,446 L-179,445 L-181,445 L-181,444 L-183,444 L-183,443 L-185,443 L-185,442 L-187,442 L-187,441 L-189,441 L-189,440 L-190,440 L-190,439 L-192,439 L-192,438 L-193,438 L-193,437 L-195,437 L-195,436 L-196,436 L-196,435 L-198,435 L-198,434 L-199,434 L-199,433 L-202,433 L-202,432 L-204,432 L-204,431 L-206,431 L-206,430 L-207,430 L-207,429 L-209,429 L-209,428 L-211,428 L-211,427 L-212,427 L-212,426 L-214,426 L-214,425 L-215,425 L-215,424 L-217,424 L-217,423 L-218,423 L-218,422 L-220,422 L-220,421 L-222,421 L-222,420 L-223,420 L-223,419 L-225,419 L-225,418 L-227,418 L-227,417 L-228,417 L-228,135 L-227,135 L-227,134 L-225,134 L-225,133 L-223,133 L-223,132 L-222,132 L-222,131 L-220,131 L-220,130 L-218,130 L-218,129 L-216,129 L-216,128 L-215,128 L-215,127 L-213,127 L-213,126 L-212,126 L-212,125 L-210,125 L-210,124 L-208,124 L-208,123 L-206,123 L-206,122 L-204,122 L-204,121 L-203,121 L-203,120 L-201,120 L-201,119 L-199,119 L-199,118 L-198,118 L-198,117 L-196,117 L-196,116 L-194,116 L-194,115 L-192,115 L-192,114 L-190,114 L-190,113 L-189,113 L-189,112 L-187,112 L-187,111 L-186,111 L-186,110 L-183,110 L-183,109 L-182,109 L-182,108 L-180,108 L-180,107 L-178,107 L-178,106 L-177,106 L-177,105 L-176,105 L-176,104 L-174,104 L-174,103 L-172,103 L-172,102 L-170,102 L-170,101 L-168,101 L-168,100 L-166,100 L-166,99 L-165,99 L-165,98 L-163,98 L-163,97 L-162,97 L-162,96 L-160,96 L-160,95 L-158,95 L-158,94 L-156,94 L-156,93 L-155,93 L-155,92 L-154,92 L-154,91 L-152,91 L-152,90 L-150,90 L-150,89 L-149,89 L-149,88 L-147,88 L-147,87 L-145,87 L-145,86 L-143,86 L-143,85 L-141,85 L-141,84 L-140,84 L-140,83 L-138,83 L-138,82 L-137,82 L-137,81 L-135,81 L-135,80 L-133,80 L-133,79 L-132,79 L-132,78 L-130,78 L-130,77 L-128,77 L-128,76 L-126,76 L-126,75 L-125,75 L-125,74 L-123,74 L-123,73 L-121,73 L-121,72 L-120,72 L-120,71 L-118,71 L-118,70 L-116,70 L-116,69 L-115,69 L-115,68 L-113,68 L-113,67 L-111,67 L-111,66 L-110,66 L-110,65 L-108,65 L-108,64 L-106,64 L-106,63 L-105,63 L-105,62 L-103,62 L-103,61 L-101,61 L-101,60 L-100,60 L-100,59 L-98,59 L-98,58 L-96,58 L-96,57 L-94,57 L-94,56 L-93,56 L-93,55 L-91,55 L-91,54 L-90,54 L-90,53 L-88,53 L-88,52 L-86,52 L-86,51 L-84,51 L-84,50 L-83,50 L-83,49 L-80,49 L-80,48 L-79,48 L-79,47 L-78,47 L-78,46 L-76,46 L-76,45 L-74,45 L-74,44 L-72,44 L-72,43 L-70,43 L-70,42 L-69,42 L-69,41 L-67,41 L-67,40 L-66,40 L-66,39 L-64,39 L-64,38 L-63,38 L-63,37 L-61,37 L-61,36 L-59,36 L-59,35 L-58,35 L-58,34 L-56,34 L-56,33 L-54,33 L-54,32 L-52,32 L-52,31 L-51,31 L-51,30 L-49,30 L-49,29 L-47,29 L-47,28 L-46,28 L-46,27 L-44,27 L-44,26 L-43,26 L-43,25 L-40,25 L-40,24 L-39,24 L-39,23 L-37,23 L-37,22 L-35,22 L-35,21 L-34,21 L-34,20 L-32,20 L-32,19 L-30,19 L-30,18 L-28,18 L-28,17 L-27,17 L-27,16 L-25,16 L-25,15 L-23,15 L-23,14 L-22,14 L-22,13 L-20,13 L-20,12 L-18,12 L-18,11 L-16,11 L-16,10 L-15,10 L-15,9 L-14,9 L-14,8 L-12,8 L-12,7 L-10,7 L-10,6 L-8,6 L-8,5 L-7,5 L-7,4 L-6,4 L-6,3 L-4,3 L-4,2 L-2,2 L-2,1 L0,1 Z " fill="#105190" transform="translate(699,87)"/>
</svg>
